<svg viewBox="0 0 30 30" xmlns="http://www.w3.org/2000/svg" xmlns:xlink="http://www.w3.org/1999/xlink" width="30.000000" height="30.000000" fill="none" customFrame="#000000">
	<path id="Vector" d="M15 0C6.7155 0 0 6.75638 0 15.0913C0 22.6234 5.4855 28.8666 12.657 30L12.657 19.4527L8.847 19.4527L8.847 15.0913L12.657 15.0913L12.657 11.7667C12.657 7.98481 14.895 5.89617 18.3225 5.89617C19.9635 5.89617 21.6795 6.19045 21.6795 6.19045L21.6795 9.90291L19.7895 9.90291C17.925 9.90291 17.3445 11.0665 17.3445 12.2602L17.3445 15.0913L21.504 15.0913L20.8395 19.4527L17.3445 19.4527L17.3445 30C24.5145 28.8682 30 22.6219 30 15.0913C30 6.75638 23.2845 0 15 0Z" fill="rgb(92,92,94)" fill-rule="nonzero" />
</svg>
