<svg viewBox="0 0 50 50" xmlns="http://www.w3.org/2000/svg" xmlns:xlink="http://www.w3.org/1999/xlink" width="50.000000" height="50.000000" fill="none" customFrame="#000000">
	<rect id="Group 7" width="50.000000" height="50.000000" x="0.000000" y="0.000000" />
	<circle id="Ellipse 2" cx="25" cy="25" r="25" fill="rgb(201.995,201.995,213.562)" />
	<path id="GO" d="M22.2812 30.2383C21.6458 30.6289 20.8646 30.8242 19.9375 30.8242C18.4115 30.8242 17.1615 30.2956 16.1875 29.2383C15.1719 28.1758 14.6641 26.7227 14.6641 24.8789C14.6641 23.0143 15.1771 21.5195 16.2031 20.3945C17.2292 19.2695 18.5859 18.707 20.2734 18.707C21.737 18.707 22.9115 19.0794 23.7969 19.8242C24.6875 20.5638 25.1979 21.4883 25.3281 22.5977L22.9609 22.5977C22.7786 21.8112 22.3333 21.2617 21.625 20.9492C21.2292 20.7773 20.7891 20.6914 20.3047 20.6914C19.3776 20.6914 18.6146 21.043 18.0156 21.7461C17.4219 22.444 17.125 23.4961 17.125 24.9023C17.125 26.319 17.4479 27.3216 18.0938 27.9102C18.7396 28.4987 19.474 28.793 20.2969 28.793C21.1042 28.793 21.7656 28.5612 22.2812 28.0977C22.7969 27.6289 23.1146 27.0169 23.2344 26.2617L20.5703 26.2617L20.5703 24.3398L25.3672 24.3398L25.3672 30.5195L23.7734 30.5195L23.5312 29.082C23.0677 29.6289 22.651 30.0143 22.2812 30.2383ZM32.7656 30.8398C31.1198 30.8398 29.862 30.3919 28.9922 29.4961C27.8255 28.3971 27.2422 26.8138 27.2422 24.7461C27.2422 22.6367 27.8255 21.0534 28.9922 19.9961C29.862 19.1003 31.1198 18.6523 32.7656 18.6523C34.4115 18.6523 35.6693 19.1003 36.5391 19.9961C37.7005 21.0534 38.2812 22.6367 38.2812 24.7461C38.2812 26.8138 37.7005 28.3971 36.5391 29.4961C35.6693 30.3919 34.4115 30.8398 32.7656 30.8398ZM35.0391 27.7461C35.5964 27.043 35.875 26.043 35.875 24.7461C35.875 23.4544 35.5938 22.457 35.0312 21.7539C34.474 21.0456 33.7188 20.6914 32.7656 20.6914C31.8125 20.6914 31.0521 21.043 30.4844 21.7461C29.9167 22.4492 29.6328 23.4492 29.6328 24.7461C29.6328 26.043 29.9167 27.043 30.4844 27.7461C31.0521 28.4492 31.8125 28.8008 32.7656 28.8008C33.7188 28.8008 34.4766 28.4492 35.0391 27.7461Z" fill="rgb(92,92,94)" fill-rule="nonzero" />
</svg>
